<?xml version="1.0" encoding="utf-8"?>
<!-- Generator: Adobe Illustrator 21.0.0, SVG Export Plug-In . SVG Version: 6.00 Build 0)  -->
<svg version="1.1" id="Layer_1" xmlns="http://www.w3.org/2000/svg" xmlns:xlink="http://www.w3.org/1999/xlink" x="0px" y="0px"
	 viewBox="0 0 60.7 66" style="enable-background:new 0 0 60.7 66;" xml:space="preserve">
<style type="text/css">
	.st0{fill:#FFFFFF;}
</style>
<g>
	<path class="st0" d="M58.4,51c3.3,3.7,3,9.4-0.7,12.7c-1.7,1.5-3.9,2.3-6,2.3c-2.5,0-4.9-1-6.7-3L30.4,46.5L15.7,63
		c-1.8,2-4.2,3-6.7,3c-2.1,0-4.3-0.8-6-2.3c-3.7-3.3-4.1-9-0.7-12.7l16-18l-16-18C-1,11.3-0.7,5.6,3,2.3C6.7-1,12.4-0.7,15.7,3
		l14.6,16.5L45,3c3.3-3.7,9-4,12.7-0.7c3.7,3.3,4,9,0.7,12.7l-16,18L58.4,51z"/>
</g>
</svg>
