<?xml version="1.0" encoding="utf-8"?>
<!-- Generator: Adobe Illustrator 21.0.0, SVG Export Plug-In . SVG Version: 6.00 Build 0)  -->
<svg version="1.1" id="Layer_1" xmlns="http://www.w3.org/2000/svg" xmlns:xlink="http://www.w3.org/1999/xlink" x="0px" y="0px"
	 viewBox="0 0 87.7 118.6" style="enable-background:new 0 0 87.7 118.6;" xml:space="preserve">
<style type="text/css">
	.st0{fill:#2D4BA0;}
</style>
<polygon class="st0" points="0,92.8 0,113.4 5.2,118.6 25.8,118.6 25.8,113.4 5.2,113.4 5.2,98 25.8,98 25.8,92.8 "/>
<polygon class="st0" points="0,30.9 0,56.7 5.2,56.7 5.2,36.1 20.6,36.1 20.6,56.7 25.8,56.7 25.8,36.1 20.6,30.9 "/>
<polygon class="st0" points="0,61.9 0,87.7 5.2,87.7 5.2,67 20.6,67 20.6,87.7 25.8,87.7 25.8,67 20.6,61.9 "/>
<rect x="10.3" y="103.1" class="st0" width="15.5" height="5.2"/>
<rect x="61.9" class="st0" width="5.2" height="5.2"/>
<rect x="61.9" y="10.3" class="st0" width="5.2" height="15.5"/>
<rect x="72.2" y="41.3" class="st0" width="15.5" height="5.2"/>
<polygon class="st0" points="5.2,0 0,5.2 0,15.5 20.6,15.5 20.6,20.6 0,20.6 0,25.8 25.8,25.8 25.8,10.3 5.2,10.3 5.2,5.2 25.8,5.2 
	25.8,0 "/>
<polygon class="st0" points="61.9,30.9 61.9,51.6 67,56.7 87.7,56.7 87.7,51.6 67,51.6 67,36.1 87.7,36.1 87.7,30.9 "/>
<rect x="10.3" y="72.2" class="st0" width="5.2" height="15.5"/>
<polygon class="st0" points="67,61.9 61.9,67 61.9,77.4 82.5,77.4 82.5,82.5 61.9,82.5 61.9,87.7 87.7,87.7 87.7,72.2 67,72.2 
	67,67 87.7,67 87.7,61.9 "/>
<rect x="72.2" y="20.6" class="st0" width="15.5" height="5.2"/>
<rect x="72.2" class="st0" width="15.5" height="5.2"/>
<rect x="72.2" y="10.3" class="st0" width="15.5" height="5.2"/>
<polygon class="st0" points="51.6,92.8 51.6,113.4 36.1,113.4 36.1,92.8 30.9,92.8 30.9,113.4 36.1,118.6 56.7,118.6 56.7,92.8 "/>
<polygon class="st0" points="61.9,92.8 61.9,118.6 67,118.6 67,98 82.5,98 82.5,118.6 87.7,118.6 87.7,98 82.5,92.8 "/>
<rect x="72.2" y="103.1" class="st0" width="5.2" height="15.5"/>
<polygon class="st0" points="51.6,82.5 36.1,82.5 36.1,61.9 30.9,61.9 30.9,82.5 36.1,87.7 56.7,87.7 56.7,61.9 51.6,61.9 "/>
<polygon class="st0" points="30.9,36.1 30.9,56.7 56.7,56.7 56.7,51.6 36.1,51.6 36.1,36.1 56.7,36.1 56.7,30.9 36.1,30.9 "/>
<polygon class="st0" points="36.1,0 30.9,5.2 30.9,25.8 56.7,25.8 56.7,20.6 36.1,20.6 36.1,5.2 56.7,5.2 56.7,0 "/>
</svg>
